<svg xmlns="http://www.w3.org/2000/svg" width="51.481" height="99.454" viewBox="0 0 51.481 99.454">
  <path id="Path_42" data-name="Path 42" d="M-157.4,107.632h-15.233V89.958h15.188c0-4.153-.1-8.157.033-12.152a49.151,49.151,0,0,1,.784-7.861A19.675,19.675,0,0,1-138.944,53.9c5.865-.48,11.781-.343,17.792-.485V70.032c-2.249,0-4.444-.057-6.635.016a44.649,44.649,0,0,0-6.168.464,5.465,5.465,0,0,0-4.942,5.375c-.209,4.608-.055,9.232-.055,14.013H-121.8v17.69h-17.338v45.284H-157.4Z" transform="translate(172.633 -53.42)" fill="#132b50"/>
</svg>
