<svg xmlns="http://www.w3.org/2000/svg" width="100.486" height="100.672" viewBox="0 0 100.486 100.672">
  <g id="Group_14" data-name="Group 14" transform="translate(733.179 166.461)">
    <path id="Path_43" data-name="Path 43" d="M-698.009-166.461h30.1c2.35.13,4.7.254,7.049.392a33.517,33.517,0,0,1,11.912,2.648c9.259,4.165,14.137,11.583,15.655,21.42.268,1.738.4,3.5.6,5.246v40.526c-.059.45-.123.9-.178,1.35-.267,2.209-.374,4.45-.825,6.621-2,9.62-7.433,16.455-16.683,20.057a38.672,38.672,0,0,1-13.8,2.244c-10.653.109-21.308.208-31.961.151-5.233-.028-10.494-.049-15.641-1.3-8.336-2.023-14.527-6.75-18.209-14.556A36,36,0,0,1-733-96.874c-.115-10.883-.236-21.768-.149-32.65a99.444,99.444,0,0,1,.981-13.707,25.523,25.523,0,0,1,10.2-17.221c4.94-3.706,10.659-5.18,16.709-5.608C-702.846-166.231-700.426-166.329-698.009-166.461Zm15.181,91.824v-.155c2.656,0,5.314.079,7.966-.016,5.7-.2,11.432-.139,17.068-.844,7.746-.97,13-5.414,14.9-13.124a43.57,43.57,0,0,0,1.09-9.635q.261-15.192.15-30.389a102.319,102.319,0,0,0-.737-12.261c-1.027-8.074-6.08-13.554-14.057-15.145a59.171,59.171,0,0,0-10.546-.952c-8.817-.147-17.637-.12-26.456-.091a88.352,88.352,0,0,0-15.1.831c-7.632,1.343-12.866,6.189-14.427,13.8a56.184,56.184,0,0,0-.966,10.05c-.172,8.062-.236,16.13-.146,24.193.063,5.7.214,11.412.759,17.077a16.658,16.658,0,0,0,8,13.117A21.512,21.512,0,0,0-704.551-75.2c7.238.264,14.482.385,21.724.563Z" fill="#132b50"/>
    <path id="Path_44" data-name="Path 44" d="M-609.237-16.277a25.89,25.89,0,0,1,25.927-25.84A25.858,25.858,0,0,1-565.025-34.5a25.858,25.858,0,0,1,7.532,18.32A25.882,25.882,0,0,1-583.356,9.624,25.918,25.918,0,0,1-609.237-16.277Zm9.116,0a16.718,16.718,0,0,0,4.874,11.866A16.718,16.718,0,0,0-583.4.509a16.715,16.715,0,0,0,11.872-4.856,16.715,16.715,0,0,0,4.936-11.839A16.719,16.719,0,0,0-571.467-28.1a16.719,16.719,0,0,0-11.9-4.919,16.721,16.721,0,0,0-11.857,4.892,16.721,16.721,0,0,0-4.9,11.853Z" transform="translate(-99.514 -99.835)" fill="#132b50"/>
    <path id="Path_45" data-name="Path 45" d="M-365.923-77.886a5.96,5.96,0,0,1,4.253,1.849,5.96,5.96,0,0,1,1.64,4.337,6,6,0,0,1-6.138,5.861,6.04,6.04,0,0,1-4.245-1.873,6.04,6.04,0,0,1-1.664-4.332,6,6,0,0,1,6.154-5.842Z" transform="translate(-289.928 -71.116)" fill="#132b50"/>
  </g>
</svg>
