<svg xmlns="http://www.w3.org/2000/svg" width="100.166" height="81.672" viewBox="0 0 100.166 81.672">
  <path id="Path_41" data-name="Path 41" d="M-173.4-63.472a42.021,42.021,0,0,0,30.13-8.473c-9.417-.851-15.681-5.591-19.193-14.374a23.511,23.511,0,0,0,9.09-.374c-12.339-3.154-16.662-14.141-16.117-20.414a20.683,20.683,0,0,0,9.085,2.417,20.647,20.647,0,0,1-8.886-14.592,20.053,20.053,0,0,1,2.65-12.824c11.136,13.112,25.206,20.345,42.274,21.5-.073-2.073-.249-4.026-.193-5.972a20.526,20.526,0,0,1,14.882-18.559,20.291,20.291,0,0,1,20.1,5.194,1.315,1.315,0,0,0,1.387.344,41.437,41.437,0,0,0,11.318-4.3c.225-.127.464-.228.847-.414a15.972,15.972,0,0,1-3.315,6.263c-1.534,1.746-3.3,3.29-4.923,4.888a41.353,41.353,0,0,0,10.814-2.976l.221.244c-1.655,1.938-3.225,3.959-4.991,5.789-1.424,1.475-3.105,2.7-4.623,4.088A1.847,1.847,0,0,0-83.4-114.8c-.018,21.227-8.377,38.282-25.654,50.714a53.089,53.089,0,0,1-24.614,9.264,60.565,60.565,0,0,1-24.86-1.806,56.511,56.511,0,0,1-14.434-6.483A5.57,5.57,0,0,1-173.4-63.472Z" transform="translate(173.4 135.95)" fill="#132b50"/>
</svg>
