<svg xmlns="http://www.w3.org/2000/svg" width="99.34" height="99.307" viewBox="0 0 99.34 99.307">
  <g id="Group_15" data-name="Group 15" transform="translate(673.4 70.398)">
    <path id="Path_46" data-name="Path 46" d="M-673.4-18.381v-5.241a6.731,6.731,0,0,0,.165-.837,47.345,47.345,0,0,1,6.775-21.5c7.88-12.928,19.274-20.871,34.19-23.665,1.866-.35,3.765-.52,5.648-.774h5.823c1.663.208,3.335.357,4.987.633a48.361,48.361,0,0,1,26.726,13.5C-577.827-45.1-572.87-31.491-574.3-15.715A46.774,46.774,0,0,1-586.308,11.9c-11.826,13.149-26.64,18.68-44.208,16.573a46.462,46.462,0,0,1-19.666-7.2,1.9,1.9,0,0,0-1.8-.227q-8.565,2.784-17.149,5.5c-.288.092-.584.154-.962.252.128-.4.214-.671.3-.943,1.817-5.416,3.619-10.837,5.47-16.241A2.182,2.182,0,0,0-664.6,7.4a47.888,47.888,0,0,1-8.027-19.551C-672.975-14.21-673.145-16.3-673.4-18.381Zm65.753,25.67a32.452,32.452,0,0,0,4.327-.863c7-2.442,9.367-5.809,9.553-12.339a2.018,2.018,0,0,0-1.258-2.077c-3.7-1.764-7.379-3.576-11.1-5.308-1.9-.885-3.018-.526-4.273,1.16-.965,1.3-1.907,2.61-2.9,3.882-1.519,1.94-2.584,2.2-4.88,1.258-8.315-3.394-14.444-9.254-19.037-16.854a2.166,2.166,0,0,1,.189-2.767c.777-.909,1.54-1.837,2.385-2.68,1.848-1.843,2.563-3.837,1.046-6.227a.6.6,0,0,1-.034-.091c-1.476-3.476-2.924-6.964-4.456-10.415a2.393,2.393,0,0,0-1.309-1.3c-2.646-.622-5.315-.66-7.592,1.083a13.7,13.7,0,0,0-4.476,6.216c-1.82,4.879-1.242,9.633.77,14.322a47.888,47.888,0,0,0,5.85,9.457A68.654,68.654,0,0,0-631.9-2.811,52.8,52.8,0,0,0-614.058,5.87c2.152.637,4.391.98,6.411,1.419Z" fill="#132b50"/>
  </g>
</svg>
