<svg xmlns="http://www.w3.org/2000/svg" width="68.35" height="82.67" viewBox="0 0 68.35 82.67">
  <path id="Path_43" data-name="Path 43" d="M-169.965,204.142c-1.889-.814-2.352-2.237-2.16-4.228.9-9.286,1.681-18.583,2.511-27.876q1.2-13.457,2.416-26.913a3.057,3.057,0,0,1,3.407-3.154c3.281,0,6.561,0,9.977,0,0-.392,0-.754,0-1.116a30.637,30.637,0,0,1,.583-7.773,15.873,15.873,0,0,1,17.8-11.387,15.806,15.806,0,0,1,13.231,15.2c.057,1.66.008,3.323.008,5.079h1.024q4.478,0,8.957,0c2.054,0,3.181.961,3.38,2.994.37,3.773.682,7.551,1.022,11.327q.779,8.676,1.56,17.352.684,7.632,1.358,15.265c.331,3.722.588,7.454,1.026,11.163.232,1.961-.368,3.282-2.163,4.068Zm16.153-56.225c-2.365,0-4.6.032-6.829-.018-.724-.016-.885.234-.939.9-.311,3.886-.671,7.77-1.019,11.653q-.774,8.638-1.556,17.275-.691,7.674-1.384,15.347c-.15,1.676-.29,3.353-.436,5.052h55.956c-.181-2.023-.355-3.977-.529-5.931q-.678-7.594-1.357-15.187-.768-8.557-1.544-17.114c-.339-3.777-.677-7.553-.993-11.332-.044-.524-.25-.681-.755-.659-.833.036-1.668.009-2.5.009h-4.479v.889c0,1.453.024,2.906-.009,4.359a2.979,2.979,0,0,1-2.954,3.009,2.973,2.973,0,0,1-2.97-2.909c-.057-1.128-.016-2.259-.018-3.389,0-.635,0-1.269,0-1.9h-19.736c0,1.724.016,3.389,0,5.052a3.008,3.008,0,0,1-2.039,2.982,2.954,2.954,0,0,1-3.9-2.856C-153.842,151.442-153.812,149.726-153.812,147.917Zm25.673-5.984c0-1.694.031-3.33-.006-4.965a9.849,9.849,0,0,0-7.2-9.191,9.973,9.973,0,0,0-11.026,4.261c-1.983,3.1-1.4,6.507-1.492,9.895Z" transform="translate(172.165 -121.472)" fill="#1f1f1f"/>
</svg>
