<svg xmlns="http://www.w3.org/2000/svg" width="117.143" height="117.148" viewBox="0 0 117.143 117.148">
  <g id="Group_15" data-name="Group 15" transform="translate(-504 -55)">
    <g id="Group_14" data-name="Group 14" transform="translate(-54 83)">
      <path id="Path_41" data-name="Path 41" d="M1319.77,367.669h-35.036l-.024-1.22a23.643,23.643,0,0,0-15.595-21.7l-.824-.3v-35.7l1.422.208a58.58,58.58,0,0,1,50.047,57.459Zm-32.625-2.488h30.1a56.1,56.1,0,0,0-46.471-53.537V342.72a26.165,26.165,0,0,1,16.367,22.461" transform="translate(-644.627 -336.333)" fill="#132b50"/>
      <path id="Path_42" data-name="Path 42" d="M1218.24,406.737l-.825-.927a58.567,58.567,0,0,1,43.423-97.469l1.251-.008v35.039l-1.226.018a23.519,23.519,0,0,0-17.224,39.172l.831.932Z" transform="translate(-644.627 -336.333)" fill="#132b50"/>
      <path id="Path_43" data-name="Path 43" d="M1261.2,425.481A58.651,58.651,0,0,1,1223.82,412l-1.116-.926,26.791-23.741.761.4a23.524,23.524,0,0,0,33.144-13.028l.292-.832h35.684l-.2,1.42a58.826,58.826,0,0,1-57.971,50.186M1226.54,411a56.09,56.09,0,0,0,89.949-34.639H1285.44a26.016,26.016,0,0,1-35.57,13.965Z" transform="translate(-644.627 -336.333)" fill="#132b50"/>
    </g>
  </g>
</svg>
