<svg xmlns="http://www.w3.org/2000/svg" xmlns:xlink="http://www.w3.org/1999/xlink" width="425.196" height="117.148" viewBox="0 0 425.196 117.148">
  <defs>
    <clipPath id="clip-path">
      <rect id="Rectangle_4" data-name="Rectangle 4" width="18.968" height="37.471" transform="translate(1391.735 308.491)" fill="#132b50"/>
    </clipPath>
  </defs>
  <g id="Group_16" data-name="Group 16" transform="translate(-1202.625 -308.333)">
    <path id="Path_41" data-name="Path 41" d="M1319.773,367.669h-35.036l-.024-1.22a23.643,23.643,0,0,0-15.595-21.7l-.824-.3V308.748l1.422.208a58.58,58.58,0,0,1,50.047,57.459Zm-32.625-2.488h30.1a56.1,56.1,0,0,0-46.471-53.537V342.72a26.165,26.165,0,0,1,16.367,22.461" fill="#132b50"/>
    <path id="Path_42" data-name="Path 42" d="M1218.238,406.737l-.825-.927a58.567,58.567,0,0,1,43.423-97.469l1.251-.008v35.039l-1.226.018a23.519,23.519,0,0,0-17.224,39.172l.831.932Z" fill="#132b50"/>
    <path id="Path_43" data-name="Path 43" d="M1261.2,425.481A58.651,58.651,0,0,1,1223.816,412l-1.116-.926,26.791-23.741.761.4a23.524,23.524,0,0,0,33.144-13.028l.292-.832h35.684l-.2,1.42a58.826,58.826,0,0,1-57.971,50.186M1226.535,411a56.09,56.09,0,0,0,89.949-34.639h-31.049a26.016,26.016,0,0,1-35.57,13.965Z" fill="#132b50"/>
    <path id="Path_44" data-name="Path 44" d="M1627.821,392.117H1335.139a2.106,2.106,0,0,1,2.106-2.106h288.47a2.106,2.106,0,0,1,2.106,2.106" fill="#132b50"/>
    <path id="Path_45" data-name="Path 45" d="M1361.245,339.49h-17.3l-2.865,6.7h-8.107l15.512-37.834h8.161l-10,24.375h11.837l-5.351-12.971,3.513-11.4,15.511,37.834h-8.106Z" fill="#132b50"/>
    <path id="Path_46" data-name="Path 46" d="M1381.676,339.078V308.359h-7.566v37.833h21.377v-7.114Z" fill="#132b50"/>
    <path id="Path_47" data-name="Path 47" d="M1432.412,308.359h-28.851v6.593H1414.7v31.24h5.39a2.392,2.392,0,0,0,2.392-2.392V314.952h9.934Z" fill="#132b50"/>
    <path id="Path_48" data-name="Path 48" d="M1444.1,331.112h13.276v-7.026h-13.261l.02-9.406h17.782l-.054-6.322h-25.348v37.834h25.348v-6.27h-17.783Z" fill="#132b50"/>
    <path id="Path_49" data-name="Path 49" d="M1507.319,308.359,1531.7,343.49v2.7H1523.8l-16.484-23.781v23.781h-7.891V308.359Zm16.484,0h7.893V343.49L1523.8,330Z" fill="#132b50"/>
    <path id="Path_50" data-name="Path 50" d="M1439.921,354.285l17.655,25.3v1.947h-5.716l-11.939-17.127v17.127H1434.2V354.285Zm11.939,0h5.716v25.3L1451.86,369.3Z" fill="#132b50"/>
    <path id="Path_51" data-name="Path 51" d="M1563.206,339.49h-17.3l-2.865,6.7h-8.108l15.513-37.834h8.161l-10,24.375h11.837l-5.121-13.838,3.331-10.438,15.464,37.735h-8.107Z" fill="#132b50"/>
    <path id="Path_52" data-name="Path 52" d="M1597.635,308.359h-30.053v6.593h11.135v31.24h7.783v-31.24h11.135Z" fill="#132b50"/>
    <path id="Path_53" data-name="Path 53" d="M1608.462,331.112h13.277v-7.026h-13.261l.019-9.406h17.782l-.053-6.322h-25.349v37.834h25.349v-6.27h-17.783Z" fill="#132b50"/>
    <path id="Path_54" data-name="Path 54" d="M1354.743,354.286h-21.766v4.748h8.065v22.5h5.637v-22.5h8.064Z" fill="#132b50"/>
    <path id="Path_55" data-name="Path 55" d="M1363.011,370.673h9.616v-5.061h-9.6l.015-6.773h12.879l-.039-4.553h-18.361v27.246h18.361v-4.514H1363Z" fill="#132b50"/>
    <path id="Path_56" data-name="Path 56" d="M1403.375,375.266a14.112,14.112,0,0,1-2.211,2.687,14.679,14.679,0,0,1-2.8,2.081,13.548,13.548,0,0,1-3.288,1.343,14.122,14.122,0,0,1-3.64.468,13.788,13.788,0,0,1-5.462-1.091,13.862,13.862,0,0,1-7.457-7.415,13.988,13.988,0,0,1,0-10.86,13.987,13.987,0,0,1,12.919-8.505,14.164,14.164,0,0,1,3.64.467,13.588,13.588,0,0,1,3.288,1.343,14.647,14.647,0,0,1,2.8,2.083,14.106,14.106,0,0,1,2.211,2.686l-4.581,2.919a8.858,8.858,0,0,0-3.013-3.367,7.723,7.723,0,0,0-4.345-1.266,7.539,7.539,0,0,0-3.25.72,8.6,8.6,0,0,0-2.662,1.947,9.517,9.517,0,0,0,0,12.806,8.553,8.553,0,0,0,2.662,1.946,7.511,7.511,0,0,0,3.25.721,7.708,7.708,0,0,0,4.345-1.266,8.865,8.865,0,0,0,3.013-3.367Z" fill="#132b50"/>
    <path id="Path_57" data-name="Path 57" d="M1424.223,354.286v11.327H1412.2V354.286h-5.715v27.247h5.715v-10.86h12.018v10.86h5.638V354.286Z" fill="#132b50"/>
    <path id="Path_58" data-name="Path 58" d="M1497.048,376.084v-21.8h-5.479v27.246h18.359v-5.448Z" fill="#132b50"/>
    <path id="Path_59" data-name="Path 59" d="M1537.351,362.479a13.575,13.575,0,0,0-7.223-7.436,13.723,13.723,0,0,0-10.8,0,13.573,13.573,0,0,0-7.224,7.436,14.722,14.722,0,0,0,0,10.86,13.915,13.915,0,0,0,2.877,4.458,13.44,13.44,0,0,0,9.748,4.087s1.2-.064,1.592-.112c.448-.056,1.776-.317,1.776-.317a12.894,12.894,0,0,0,4.169-1.811,13.553,13.553,0,0,0,3.268-3.053,13.765,13.765,0,0,0,2.114-4.011,14.6,14.6,0,0,0,.744-4.672,14.272,14.272,0,0,0-1.037-5.429m-5.148,8.758a8.9,8.9,0,0,1-1.527,2.764,8.228,8.228,0,0,1-2.328,1.947,7.09,7.09,0,0,1-3,.875h-.626a7.363,7.363,0,0,1-3.229-.7,7.959,7.959,0,0,1-2.545-1.907,8.814,8.814,0,0,1-1.683-2.841,10.2,10.2,0,0,1,0-6.928,8.809,8.809,0,0,1,1.683-2.842,7.991,7.991,0,0,1,2.545-1.908,7.789,7.789,0,0,1,6.459,0,7.773,7.773,0,0,1,2.525,1.908,9.043,9.043,0,0,1,1.664,2.842,9.888,9.888,0,0,1,.607,3.463,10.1,10.1,0,0,1-.548,3.329" fill="#132b50"/>
    <path id="Path_60" data-name="Path 60" d="M1486.994,362.479a13.7,13.7,0,0,0-2.877-4.438,13.837,13.837,0,0,0-4.345-3,13.725,13.725,0,0,0-10.8,0,13.825,13.825,0,0,0-4.347,3,13.679,13.679,0,0,0-2.876,4.438,14.722,14.722,0,0,0,0,10.86,13.9,13.9,0,0,0,2.876,4.458,13.441,13.441,0,0,0,9.748,4.087s1.2-.064,1.592-.112c.448-.056,1.776-.317,1.776-.317a12.908,12.908,0,0,0,4.17-1.811,13.564,13.564,0,0,0,3.267-3.053,13.759,13.759,0,0,0,2.114-4.011,14.6,14.6,0,0,0,.745-4.672,14.272,14.272,0,0,0-1.038-5.429m-5.148,8.758A8.923,8.923,0,0,1,1480.32,374a8.242,8.242,0,0,1-2.329,1.947,7.09,7.09,0,0,1-3,.875h-.626a7.363,7.363,0,0,1-3.229-.7,7.961,7.961,0,0,1-2.545-1.907,8.829,8.829,0,0,1-1.683-2.841,10.2,10.2,0,0,1,0-6.928,8.824,8.824,0,0,1,1.683-2.842,7.993,7.993,0,0,1,2.545-1.908,7.789,7.789,0,0,1,6.459,0,7.774,7.774,0,0,1,2.525,1.908,9.022,9.022,0,0,1,1.664,2.842,9.863,9.863,0,0,1,.607,3.463,10.074,10.074,0,0,1-.548,3.329" fill="#132b50"/>
    <path id="Path_61" data-name="Path 61" d="M1568.888,366.741c.025.39.039.779.039,1.168a14.3,14.3,0,0,1-1.038,5.43,13.835,13.835,0,0,1-2.857,4.438,13.434,13.434,0,0,1-9.728,4.068,13.787,13.787,0,0,1-5.462-1.091,13.862,13.862,0,0,1-7.457-7.415,13.987,13.987,0,0,1,0-10.86,13.878,13.878,0,0,1,7.457-7.416,13.821,13.821,0,0,1,5.462-1.089,13.5,13.5,0,0,1,6.909,1.809,14.379,14.379,0,0,1,4.99,4.77l-4.58,2.918a8.509,8.509,0,0,0-2.994-3.366,7.745,7.745,0,0,0-4.325-1.266,7.628,7.628,0,0,0-3.289.72,8.592,8.592,0,0,0-2.662,1.947,9.437,9.437,0,0,0-2.466,6.4,9.366,9.366,0,0,0,.665,3.523,9.26,9.26,0,0,0,1.8,2.88,8.542,8.542,0,0,0,2.662,1.946,7.843,7.843,0,0,0,5.951.254,7.209,7.209,0,0,0,2.231-1.324,9.135,9.135,0,0,0,1.7-2,8.736,8.736,0,0,0,1.077-2.55h-7.439l-2.5-5.06h15.737c.052.389.092.778.118,1.167" fill="#132b50"/>
    <rect id="Rectangle_3" data-name="Rectangle 3" width="5.715" height="27.247" transform="translate(1573.745 354.286)" fill="#132b50"/>
    <path id="Path_62" data-name="Path 62" d="M1589.808,370.673h9.616v-5.061h-9.6l.014-6.773h12.879l-.039-4.553h-18.359v27.246h18.359v-4.514h-12.879Z" fill="#132b50"/>
    <path id="Path_63" data-name="Path 63" d="M1617.884,365.612a32.643,32.643,0,0,1,3.464,1.129,11.069,11.069,0,0,1,2.74,1.518,6.476,6.476,0,0,1,1.8,2.14,6.364,6.364,0,0,1,.645,2.959v.117a7.677,7.677,0,0,1-.763,3.426,7.918,7.918,0,0,1-2.114,2.665,9.762,9.762,0,0,1-3.17,1.714,12.606,12.606,0,0,1-3.974.6,14.812,14.812,0,0,1-3.816-.485,15.362,15.362,0,0,1-3.308-1.274,12.967,12.967,0,0,1-2.6-1.8,7.909,7.909,0,0,1-1.7-2.091l4.581-2.88a17.183,17.183,0,0,0,1.488,1.459,8.837,8.837,0,0,0,1.566,1.091,7.33,7.33,0,0,0,1.8.683,9.416,9.416,0,0,0,2.152.232,7.669,7.669,0,0,0,1.508-.155,4.816,4.816,0,0,0,1.39-.508,3.177,3.177,0,0,0,1.017-.877,2.13,2.13,0,0,0,.392-1.307,2.183,2.183,0,0,0-.275-1.052,3.167,3.167,0,0,0-.938-1,8.255,8.255,0,0,0-1.8-.935,22.954,22.954,0,0,0-2.857-.877,31.055,31.055,0,0,1-3.8-1.151,11,11,0,0,1-2.859-1.56,6.218,6.218,0,0,1-1.8-2.2,6.891,6.891,0,0,1-.626-3.042,8,8,0,0,1,.724-3.45,7.317,7.317,0,0,1,2.016-2.594,9.264,9.264,0,0,1,3.034-1.618,12.033,12.033,0,0,1,3.738-.565,14.105,14.105,0,0,1,3.758.466,14.491,14.491,0,0,1,3.015,1.188,11.615,11.615,0,0,1,2.329,1.635,14.758,14.758,0,0,1,1.663,1.77l-4.5,2.881a11.206,11.206,0,0,0-3.19-2.239,7.976,7.976,0,0,0-3.152-.642,5.292,5.292,0,0,0-1.741.254,4.089,4.089,0,0,0-1.194.623,2.708,2.708,0,0,0-.724.837,1.866,1.866,0,0,0-.255.895,2.214,2.214,0,0,0,.411,1.342,3.906,3.906,0,0,0,1.214,1.033,10.35,10.35,0,0,0,2,.855q1.194.39,2.722.779" fill="#132b50"/>
    <g id="Group_15" data-name="Group 15">
      <g id="Group_14" data-name="Group 14" clip-path="url(#clip-path)">
        <path id="Path_64" data-name="Path 64" d="M1409.888,319.363v25.784h-4.512a1.9,1.9,0,0,1-1.9-1.9V314.959h-10.925v-5.653h8.808l.815-.816h-10.438v7.285h10.924v27.471a2.72,2.72,0,0,0,2.716,2.716h5.327V318.548Z" fill="#132b50"/>
      </g>
    </g>
    <path id="Path_65" data-name="Path 65" d="M1487.4,334.174c.327-.125.658-.254,1.006-.414a13.192,13.192,0,0,0,5.541-4.756,12.709,12.709,0,0,0,2.135-7.242,13.117,13.117,0,0,0-1.054-5.216,13.5,13.5,0,0,0-2.865-4.27,13.7,13.7,0,0,0-4.215-2.865,12.732,12.732,0,0,0-5.162-1.052h-17.134v37.833h7.62V315.006h9.514a5.042,5.042,0,0,1,2.242.514,6,6,0,0,1,1.838,1.378,6.815,6.815,0,0,1,1.244,1.973,5.948,5.948,0,0,1,.459,2.3,6.234,6.234,0,0,1-1.676,4.568,5.539,5.539,0,0,1-4.107,1.7h-7.87l-1.393,7.568q2.8,0,4.8.016l9.058,11.171H1497Z" fill="#132b50"/>
    <rect id="Rectangle_5" data-name="Rectangle 5" width="1.632" height="8.806" transform="translate(1338.225 398.629)" fill="#132b50"/>
    <path id="Path_66" data-name="Path 66" d="M1348.43,403.584v3.851h-1.569v-3.649c0-1.2-.59-1.773-1.595-1.773a1.782,1.782,0,0,0-1.87,2.025v3.4h-1.569v-6.718h1.494v.868a2.912,2.912,0,0,1,2.309-.944,2.623,2.623,0,0,1,2.8,2.943" fill="#132b50"/>
    <path id="Path_67" data-name="Path 67" d="M1356.775,403.584v3.851h-1.569v-3.649c0-1.2-.59-1.773-1.6-1.773a1.782,1.782,0,0,0-1.87,2.025v3.4h-1.569v-6.718h1.494v.868a2.913,2.913,0,0,1,2.31-.944,2.623,2.623,0,0,1,2.8,2.943" fill="#132b50"/>
    <path id="Path_68" data-name="Path 68" d="M1358.027,404.075a3.574,3.574,0,1,1,3.565,3.447,3.378,3.378,0,0,1-3.565-3.447m5.561,0a1.993,1.993,0,1,0-2,2.1,1.955,1.955,0,0,0,2-2.1" fill="#132b50"/>
    <path id="Path_69" data-name="Path 69" d="M1372.511,400.717l-2.875,6.718h-1.619l-2.875-6.718h1.632l2.084,4.981,2.147-4.981Z" fill="#132b50"/>
    <path id="Path_70" data-name="Path 70" d="M1378.634,403.5v3.938h-1.482v-.818a2.373,2.373,0,0,1-2.108.9c-1.531,0-2.5-.842-2.5-2.012,0-1.12.754-2,2.787-2h1.733v-.1c0-.919-.552-1.46-1.67-1.46a3.312,3.312,0,0,0-2.034.667l-.614-1.144a4.7,4.7,0,0,1,2.837-.831c1.933,0,3.05.919,3.05,2.856m-1.569,1.836v-.779h-1.619c-1.068,0-1.357.4-1.357.893,0,.567.477.931,1.281.931a1.709,1.709,0,0,0,1.695-1.045" fill="#132b50"/>
    <path id="Path_71" data-name="Path 71" d="M1384.419,407.07a2.462,2.462,0,0,1-1.507.453,2.061,2.061,0,0,1-2.309-2.265v-3.233h-1.1v-1.258h1.1v-1.534h1.569v1.534h1.8v1.258h-1.8v3.2c0,.655.326,1.007.929,1.007a1.411,1.411,0,0,0,.878-.277Z" fill="#132b50"/>
    <path id="Path_72" data-name="Path 72" d="M1385.244,398.666a.958.958,0,0,1,1.005-.944.936.936,0,0,1,1,.907,1.006,1.006,0,0,1-2.009.037m.214,2.051h1.569v6.718h-1.569Z" fill="#132b50"/>
    <path id="Path_73" data-name="Path 73" d="M1395.11,400.717l-2.875,6.718h-1.619l-2.875-6.718h1.632l2.084,4.981,2.147-4.981Z" fill="#132b50"/>
    <path id="Path_74" data-name="Path 74" d="M1401.924,404.579h-5.259a2.03,2.03,0,0,0,2.171,1.61,2.4,2.4,0,0,0,1.82-.73l.841.969a3.762,3.762,0,0,1-6.4-2.353,3.338,3.338,0,0,1,3.465-3.435,3.273,3.273,0,0,1,3.389,3.473c0,.125-.012.315-.025.466m-5.272-1.044h3.8a1.827,1.827,0,0,0-1.9-1.637,1.855,1.855,0,0,0-1.908,1.637" fill="#132b50"/>
    <path id="Path_75" data-name="Path 75" d="M1405.824,406.5l.565-1.27a4.855,4.855,0,0,0,2.9.968c1.368,0,1.946-.49,1.946-1.143,0-1.9-5.223-.655-5.223-3.926,0-1.422,1.13-2.63,3.541-2.63a5.538,5.538,0,0,1,2.924.781l-.514,1.27a4.881,4.881,0,0,0-2.423-.692c-1.356,0-1.908.529-1.908,1.2,0,1.874,5.209.654,5.209,3.886,0,1.41-1.142,2.618-3.552,2.618a5.649,5.649,0,0,1-3.465-1.058" fill="#132b50"/>
    <path id="Path_76" data-name="Path 76" d="M1413.5,404.075a3.573,3.573,0,1,1,3.565,3.447,3.378,3.378,0,0,1-3.565-3.447m5.561,0a1.992,1.992,0,1,0-2,2.1,1.955,1.955,0,0,0,2-2.1" fill="#132b50"/>
    <rect id="Rectangle_6" data-name="Rectangle 6" width="1.57" height="9.335" transform="translate(1421.898 398.1)" fill="#132b50"/>
    <path id="Path_77" data-name="Path 77" d="M1431.765,400.717v6.718h-1.494v-.856a2.734,2.734,0,0,1-2.159.944,2.655,2.655,0,0,1-2.888-2.969v-3.837h1.57v3.623c0,1.22.577,1.8,1.569,1.8a1.769,1.769,0,0,0,1.832-2.026v-3.4Z" fill="#132b50"/>
    <path id="Path_78" data-name="Path 78" d="M1437.6,407.07a2.461,2.461,0,0,1-1.506.453,2.061,2.061,0,0,1-2.31-2.265v-3.233h-1.1v-1.258h1.1v-1.534h1.57v1.534h1.794v1.258h-1.794v3.2c0,.655.325,1.007.928,1.007a1.414,1.414,0,0,0,.879-.277Z" fill="#132b50"/>
    <path id="Path_79" data-name="Path 79" d="M1438.425,398.666a.957.957,0,0,1,1-.944.936.936,0,0,1,1.005.907,1.006,1.006,0,0,1-2.009.037m.213,2.051h1.57v6.718h-1.57Z" fill="#132b50"/>
    <path id="Path_80" data-name="Path 80" d="M1441.463,404.075a3.573,3.573,0,1,1,3.565,3.447,3.378,3.378,0,0,1-3.565-3.447m5.561,0a1.993,1.993,0,1,0-2,2.1,1.956,1.956,0,0,0,2-2.1" fill="#132b50"/>
    <path id="Path_81" data-name="Path 81" d="M1456.459,403.584v3.851h-1.568v-3.649c0-1.2-.59-1.773-1.595-1.773a1.781,1.781,0,0,0-1.869,2.025v3.4h-1.571v-6.718h1.495v.868a2.913,2.913,0,0,1,2.309-.944,2.622,2.622,0,0,1,2.8,2.943" fill="#132b50"/>
    <path id="Path_82" data-name="Path 82" d="M1457.437,406.768l.6-1.194a4.507,4.507,0,0,0,2.335.666c.991,0,1.405-.277,1.405-.742,0-1.284-4.143-.077-4.143-2.755,0-1.271,1.143-2.1,2.95-2.1a5.322,5.322,0,0,1,2.511.579l-.6,1.194a3.676,3.676,0,0,0-1.92-.5c-.954,0-1.408.314-1.408.754,0,1.358,4.144.151,4.144,2.781,0,1.258-1.155,2.075-3.039,2.075a5.315,5.315,0,0,1-2.836-.755" fill="#132b50"/>
    <path id="Path_83" data-name="Path 83" d="M1469.359,400.364v.4h1.846v1.257h-1.8v5.411h-1.569v-5.411h-1.1v-1.257h1.1v-.428a2.169,2.169,0,0,1,2.4-2.328,2.513,2.513,0,0,1,1.418.366l-.44,1.181a1.542,1.542,0,0,0-.866-.275c-.652,0-.991.365-.991,1.081" fill="#132b50"/>
    <path id="Path_84" data-name="Path 84" d="M1471.353,404.075a3.573,3.573,0,1,1,3.564,3.447,3.378,3.378,0,0,1-3.564-3.447m5.561,0a1.992,1.992,0,1,0-2,2.1,1.956,1.956,0,0,0,2-2.1" fill="#132b50"/>
    <path id="Path_85" data-name="Path 85" d="M1483.626,400.641v1.5a1.925,1.925,0,0,0-.364-.038,1.829,1.829,0,0,0-1.946,2.075v3.259h-1.569v-6.718h1.494v.982a2.635,2.635,0,0,1,2.385-1.058" fill="#132b50"/>
    <path id="Path_86" data-name="Path 86" d="M1500.972,398.629l-2.913,8.806h-1.733l-2.17-6.517-2.21,6.517H1490.2l-2.912-8.806h1.695l2.184,6.692,2.272-6.692h1.506l2.222,6.73,2.247-6.73Z" fill="#132b50"/>
    <path id="Path_87" data-name="Path 87" d="M1507.006,403.5v3.938h-1.481v-.818a2.376,2.376,0,0,1-2.109.9c-1.532,0-2.5-.842-2.5-2.012,0-1.12.753-2,2.787-2h1.731v-.1c0-.919-.552-1.46-1.668-1.46a3.308,3.308,0,0,0-2.034.667l-.615-1.144a4.7,4.7,0,0,1,2.837-.831c1.933,0,3.05.919,3.05,2.856m-1.57,1.836v-.779h-1.619c-1.067,0-1.355.4-1.355.893,0,.567.477.931,1.28.931a1.707,1.707,0,0,0,1.694-1.045" fill="#132b50"/>
    <path id="Path_88" data-name="Path 88" d="M1507.994,406.768l.6-1.194a4.507,4.507,0,0,0,2.335.666c.991,0,1.405-.277,1.405-.742,0-1.284-4.143-.077-4.143-2.755,0-1.271,1.143-2.1,2.951-2.1a5.32,5.32,0,0,1,2.51.579l-.6,1.194a3.673,3.673,0,0,0-1.92-.5c-.954,0-1.407.314-1.407.754,0,1.358,4.143.151,4.143,2.781,0,1.258-1.155,2.075-3.038,2.075a5.317,5.317,0,0,1-2.837-.755" fill="#132b50"/>
    <path id="Path_89" data-name="Path 89" d="M1519,407.07a2.461,2.461,0,0,1-1.506.453,2.061,2.061,0,0,1-2.31-2.265v-3.233h-1.105v-1.258h1.105v-1.534h1.569v1.534h1.795v1.258h-1.795v3.2c0,.655.326,1.007.929,1.007a1.414,1.414,0,0,0,.879-.277Z" fill="#132b50"/>
    <path id="Path_90" data-name="Path 90" d="M1526.091,404.579h-5.259a2.032,2.032,0,0,0,2.172,1.61,2.4,2.4,0,0,0,1.82-.73l.841.969a3.763,3.763,0,0,1-6.4-2.353,3.338,3.338,0,0,1,3.464-3.435,3.274,3.274,0,0,1,3.39,3.473c0,.125-.013.315-.026.466m-5.271-1.044h3.8a1.827,1.827,0,0,0-1.9-1.637,1.854,1.854,0,0,0-1.907,1.637" fill="#132b50"/>
    <path id="Path_91" data-name="Path 91" d="M1538.8,407.435l-.014-5.838-2.885,4.831h-.729l-2.888-4.756v5.763h-1.556v-8.806h1.343l3.49,5.836,3.426-5.836h1.344l.013,8.806Z" fill="#132b50"/>
    <path id="Path_92" data-name="Path 92" d="M1547.926,403.5v3.938h-1.481v-.818a2.376,2.376,0,0,1-2.109.9c-1.531,0-2.5-.842-2.5-2.012,0-1.12.753-2,2.788-2h1.731v-.1c0-.919-.552-1.46-1.669-1.46a3.31,3.31,0,0,0-2.034.667l-.615-1.144a4.7,4.7,0,0,1,2.837-.831c1.933,0,3.05.919,3.05,2.856m-1.569,1.836v-.779h-1.619c-1.067,0-1.356.4-1.356.893,0,.567.477.931,1.281.931a1.709,1.709,0,0,0,1.694-1.045" fill="#132b50"/>
    <path id="Path_93" data-name="Path 93" d="M1556.283,403.584v3.851h-1.569v-3.649c0-1.2-.59-1.773-1.595-1.773a1.781,1.781,0,0,0-1.869,2.025v3.4h-1.571v-6.718h1.5v.868a2.91,2.91,0,0,1,2.308-.944,2.623,2.623,0,0,1,2.8,2.943" fill="#132b50"/>
    <path id="Path_94" data-name="Path 94" d="M1563.637,403.5v3.938h-1.48v-.818a2.379,2.379,0,0,1-2.11.9c-1.531,0-2.5-.842-2.5-2.012,0-1.12.753-2,2.788-2h1.731v-.1c0-.919-.552-1.46-1.669-1.46a3.31,3.31,0,0,0-2.034.667l-.615-1.144a4.7,4.7,0,0,1,2.837-.831c1.933,0,3.05.919,3.05,2.856m-1.569,1.836v-.779h-1.619c-1.067,0-1.356.4-1.356.893,0,.567.477.931,1.281.931a1.709,1.709,0,0,0,1.694-1.045" fill="#132b50"/>
    <path id="Path_95" data-name="Path 95" d="M1572.107,400.717v5.7c0,2.44-1.267,3.549-3.614,3.549a5.318,5.318,0,0,1-3.264-.957l.7-1.183a4.04,4.04,0,0,0,2.472.8c1.482,0,2.135-.679,2.135-2.038v-.352a2.946,2.946,0,0,1-2.247.894,3.249,3.249,0,1,1,0-6.492,2.9,2.9,0,0,1,2.322.968v-.892Zm-1.544,3.157a2.043,2.043,0,1,0-2.033,1.926,1.886,1.886,0,0,0,2.033-1.926" fill="#132b50"/>
    <path id="Path_96" data-name="Path 96" d="M1580.188,404.579h-5.259a2.03,2.03,0,0,0,2.172,1.61,2.4,2.4,0,0,0,1.82-.73l.84.969a3.762,3.762,0,0,1-6.4-2.353,3.337,3.337,0,0,1,3.464-3.435,3.274,3.274,0,0,1,3.389,3.473c0,.125-.013.315-.025.466m-5.272-1.044h3.8a1.827,1.827,0,0,0-1.9-1.637,1.855,1.855,0,0,0-1.908,1.637" fill="#132b50"/>
    <path id="Path_97" data-name="Path 97" d="M1592.677,403.584v3.851h-1.57v-3.649c0-1.2-.552-1.773-1.507-1.773-1.029,0-1.743.678-1.743,2.011v3.411h-1.571v-3.649c0-1.2-.551-1.773-1.506-1.773-1.041,0-1.745.678-1.745,2.011v3.411h-1.569v-6.718h1.494v.855a2.776,2.776,0,0,1,2.2-.931,2.513,2.513,0,0,1,2.26,1.119,3.123,3.123,0,0,1,2.51-1.119c1.619,0,2.75.919,2.75,2.943" fill="#132b50"/>
    <path id="Path_98" data-name="Path 98" d="M1600.767,404.579h-5.259a2.032,2.032,0,0,0,2.173,1.61,2.4,2.4,0,0,0,1.819-.73l.841.969a3.762,3.762,0,0,1-6.4-2.353,3.338,3.338,0,0,1,3.465-3.435,3.274,3.274,0,0,1,3.389,3.473c0,.125-.013.315-.026.466m-5.271-1.044h3.8a1.827,1.827,0,0,0-1.9-1.637,1.854,1.854,0,0,0-1.908,1.637" fill="#132b50"/>
    <path id="Path_99" data-name="Path 99" d="M1608.65,403.584v3.851h-1.57v-3.649c0-1.2-.59-1.773-1.594-1.773a1.782,1.782,0,0,0-1.871,2.025v3.4h-1.569v-6.718h1.495v.868a2.909,2.909,0,0,1,2.308-.944,2.624,2.624,0,0,1,2.8,2.943" fill="#132b50"/>
    <path id="Path_100" data-name="Path 100" d="M1614.419,407.07a2.458,2.458,0,0,1-1.505.453,2.061,2.061,0,0,1-2.31-2.265v-3.233h-1.1v-1.258h1.1v-1.534h1.568v1.534h1.8v1.258h-1.8v3.2c0,.655.327,1.007.93,1.007a1.414,1.414,0,0,0,.879-.277Z" fill="#132b50"/>
    <path id="Path_101" data-name="Path 101" d="M1625.414,407.573l-1.1-1.07a4.429,4.429,0,0,1-2.949,1.057c-1.859,0-3.2-.969-3.2-2.352,0-1.1.6-1.862,2.033-2.667a2.671,2.671,0,0,1-.98-1.938c0-1.232,1.005-2.076,2.548-2.076,1.42,0,2.349.742,2.349,1.938,0,.9-.528,1.559-1.8,2.277l1.9,1.812a5.772,5.772,0,0,0,.49-1.486l1.267.416a6,6,0,0,1-.791,2.014l1.1,1.056Zm-2.033-1.963-2.323-2.226c-1.017.565-1.368,1.031-1.368,1.66,0,.729.7,1.233,1.782,1.233a2.941,2.941,0,0,0,1.909-.667m-2.737-5.032c0,.391.163.68.791,1.309,1.017-.554,1.343-.918,1.343-1.4,0-.5-.364-.843-1.018-.843-.7,0-1.116.39-1.116.931" fill="#132b50"/>
    <path id="Path_102" data-name="Path 102" d="M1337.485,421.6l.565-1.271a4.856,4.856,0,0,0,2.9.969c1.368,0,1.945-.491,1.945-1.144,0-1.9-5.222-.655-5.222-3.926,0-1.422,1.13-2.629,3.54-2.629a5.539,5.539,0,0,1,2.925.78l-.515,1.271a4.87,4.87,0,0,0-2.422-.692c-1.356,0-1.908.528-1.908,1.2,0,1.874,5.209.654,5.209,3.887,0,1.409-1.142,2.617-3.552,2.617a5.653,5.653,0,0,1-3.465-1.057" fill="#132b50"/>
    <path id="Path_103" data-name="Path 103" d="M1352.207,415.808v6.718h-1.494v-.856a2.734,2.734,0,0,1-2.159.944,2.654,2.654,0,0,1-2.887-2.968v-3.838h1.569v3.623c0,1.22.578,1.8,1.57,1.8a1.768,1.768,0,0,0,1.832-2.025v-3.4Z" fill="#132b50"/>
    <path id="Path_104" data-name="Path 104" d="M1353.246,421.86l.6-1.195a4.513,4.513,0,0,0,2.335.667c.992,0,1.406-.278,1.406-.743,0-1.284-4.143-.075-4.143-2.755,0-1.271,1.142-2.1,2.95-2.1a5.339,5.339,0,0,1,2.511.578l-.6,1.2a3.663,3.663,0,0,0-1.92-.5c-.954,0-1.406.314-1.406.754,0,1.359,4.142.151,4.142,2.781,0,1.258-1.155,2.075-3.038,2.075a5.317,5.317,0,0,1-2.837-.754" fill="#132b50"/>
    <path id="Path_105" data-name="Path 105" d="M1364.254,422.161a2.462,2.462,0,0,1-1.507.452,2.061,2.061,0,0,1-2.309-2.264v-3.233h-1.1v-1.258h1.1v-1.535h1.569v1.535h1.8v1.258h-1.8v3.2c0,.655.326,1.006.929,1.006a1.41,1.41,0,0,0,.878-.276Z" fill="#132b50"/>
    <path id="Path_106" data-name="Path 106" d="M1370.9,418.588v3.938h-1.481v-.818a2.373,2.373,0,0,1-2.109.9c-1.531,0-2.5-.841-2.5-2.011,0-1.121.753-2,2.787-2h1.732v-.1c0-.919-.552-1.46-1.669-1.46a3.323,3.323,0,0,0-2.034.667l-.615-1.144a4.7,4.7,0,0,1,2.837-.83c1.933,0,3.05.918,3.05,2.855m-1.569,1.837v-.779h-1.619c-1.068,0-1.356.4-1.356.892,0,.567.477.932,1.28.932a1.708,1.708,0,0,0,1.695-1.045" fill="#132b50"/>
    <path id="Path_107" data-name="Path 107" d="M1372.445,413.757a.957.957,0,0,1,1.005-.943.935.935,0,0,1,1,.906,1.006,1.006,0,0,1-2.009.037m.214,2.051h1.569v6.718h-1.569Z" fill="#132b50"/>
    <path id="Path_108" data-name="Path 108" d="M1382.638,418.676v3.85h-1.569v-3.649c0-1.194-.59-1.773-1.595-1.773a1.782,1.782,0,0,0-1.87,2.025v3.4h-1.569v-6.718h1.494v.868a2.911,2.911,0,0,1,2.309-.943,2.623,2.623,0,0,1,2.8,2.943" fill="#132b50"/>
    <path id="Path_109" data-name="Path 109" d="M1389.991,418.588v3.938h-1.481v-.818a2.373,2.373,0,0,1-2.109.9c-1.531,0-2.5-.841-2.5-2.011,0-1.121.753-2,2.787-2h1.732v-.1c0-.919-.552-1.46-1.669-1.46a3.323,3.323,0,0,0-2.034.667l-.615-1.144a4.7,4.7,0,0,1,2.837-.83c1.933,0,3.05.918,3.05,2.855m-1.569,1.837v-.779H1386.8c-1.068,0-1.356.4-1.356.892,0,.567.477.932,1.28.932a1.708,1.708,0,0,0,1.695-1.045" fill="#132b50"/>
    <path id="Path_110" data-name="Path 110" d="M1398.864,419.166a3.269,3.269,0,0,1-3.4,3.447,2.76,2.76,0,0,1-2.222-.956v.868h-1.494V413.19h1.569v3.435a2.784,2.784,0,0,1,2.147-.893,3.259,3.259,0,0,1,3.4,3.434m-1.595,0a1.993,1.993,0,1,0-1.983,2.1,1.953,1.953,0,0,0,1.983-2.1" fill="#132b50"/>
    <rect id="Rectangle_7" data-name="Rectangle 7" width="1.569" height="9.335" transform="translate(1400.102 413.191)" fill="#132b50"/>
    <path id="Path_111" data-name="Path 111" d="M1409.755,419.67h-5.26a2.031,2.031,0,0,0,2.172,1.61,2.4,2.4,0,0,0,1.82-.729l.841.968a3.762,3.762,0,0,1-6.4-2.353,3.338,3.338,0,0,1,3.465-3.434,3.273,3.273,0,0,1,3.389,3.473c0,.125-.013.314-.025.465m-5.272-1.044h3.8a1.826,1.826,0,0,0-1.9-1.636,1.854,1.854,0,0,0-1.908,1.636" fill="#132b50"/>
    <path id="Path_112" data-name="Path 112" d="M1420.985,421.154v1.371h-6.59v-8.806h6.414v1.371h-4.782v2.291h4.243v1.345h-4.243v2.428Z" fill="#132b50"/>
    <path id="Path_113" data-name="Path 113" d="M1429,418.676v3.85h-1.569v-3.649c0-1.194-.59-1.773-1.594-1.773a1.782,1.782,0,0,0-1.87,2.025v3.4h-1.57v-6.718h1.495v.868a2.91,2.91,0,0,1,2.309-.943,2.622,2.622,0,0,1,2.8,2.943" fill="#132b50"/>
    <path id="Path_114" data-name="Path 114" d="M1437.085,419.67h-5.259a2.031,2.031,0,0,0,2.172,1.61,2.4,2.4,0,0,0,1.82-.729l.841.968a3.763,3.763,0,0,1-6.4-2.353,3.338,3.338,0,0,1,3.464-3.434,3.273,3.273,0,0,1,3.389,3.473c0,.125-.012.314-.025.465m-5.272-1.044h3.8a1.826,1.826,0,0,0-1.9-1.636,1.855,1.855,0,0,0-1.908,1.636" fill="#132b50"/>
    <path id="Path_115" data-name="Path 115" d="M1442.241,415.733v1.5a1.991,1.991,0,0,0-.364-.038,1.829,1.829,0,0,0-1.945,2.075v3.259h-1.57v-6.718h1.495v.982a2.633,2.633,0,0,1,2.384-1.057" fill="#132b50"/>
    <path id="Path_116" data-name="Path 116" d="M1449.91,415.808v5.7c0,2.439-1.268,3.548-3.614,3.548a5.316,5.316,0,0,1-3.265-.957l.7-1.183a4.041,4.041,0,0,0,2.473.806c1.481,0,2.135-.68,2.135-2.038v-.352a2.949,2.949,0,0,1-2.247.893,3.249,3.249,0,1,1,0-6.491,2.9,2.9,0,0,1,2.322.967v-.892Zm-1.544,3.157a2.043,2.043,0,1,0-2.033,1.926,1.886,1.886,0,0,0,2.033-1.926" fill="#132b50"/>
    <path id="Path_117" data-name="Path 117" d="M1457.991,415.808l-3.138,7.259c-.615,1.522-1.468,1.988-2.586,1.988a2.771,2.771,0,0,1-1.795-.617l.628-1.157a1.7,1.7,0,0,0,1.155.465c.552,0,.879-.264,1.18-.93l.113-.265-2.925-6.743h1.632l2.108,4.969,2.121-4.969Z" fill="#132b50"/>
    <path id="Path_118" data-name="Path 118" d="M1462.08,413.72h3.841c2.85,0,4.795,1.761,4.795,4.4s-1.945,4.4-4.795,4.4h-3.841Zm3.766,7.422a3.026,3.026,0,1,0,0-6.038h-2.135v6.038Z" fill="#132b50"/>
    <path id="Path_119" data-name="Path 119" d="M1478.319,419.67h-5.259a2.032,2.032,0,0,0,2.173,1.61,2.4,2.4,0,0,0,1.819-.729l.841.968a3.762,3.762,0,0,1-6.4-2.353,3.338,3.338,0,0,1,3.465-3.434,3.273,3.273,0,0,1,3.389,3.473c0,.125-.013.314-.026.465m-5.271-1.044h3.8a1.827,1.827,0,0,0-1.9-1.636,1.854,1.854,0,0,0-1.908,1.636" fill="#132b50"/>
    <path id="Path_120" data-name="Path 120" d="M1485.748,415.808l-2.874,6.718h-1.62l-2.874-6.718h1.631l2.085,4.981,2.145-4.981Z" fill="#132b50"/>
    <path id="Path_121" data-name="Path 121" d="M1492.562,419.67H1487.3a2.03,2.03,0,0,0,2.172,1.61,2.4,2.4,0,0,0,1.82-.729l.84.968a3.762,3.762,0,0,1-6.4-2.353,3.338,3.338,0,0,1,3.465-3.434,3.273,3.273,0,0,1,3.389,3.473c0,.125-.013.314-.025.465m-5.272-1.044h3.8a1.826,1.826,0,0,0-1.9-1.636,1.854,1.854,0,0,0-1.908,1.636" fill="#132b50"/>
    <rect id="Rectangle_8" data-name="Rectangle 8" width="1.569" height="9.335" transform="translate(1493.84 413.191)" fill="#132b50"/>
    <path id="Path_122" data-name="Path 122" d="M1496.664,419.166a3.573,3.573,0,1,1,3.564,3.447,3.377,3.377,0,0,1-3.564-3.447m5.561,0a1.993,1.993,0,1,0-2,2.1,1.956,1.956,0,0,0,2-2.1" fill="#132b50"/>
    <path id="Path_123" data-name="Path 123" d="M1512.177,419.166a3.269,3.269,0,0,1-3.4,3.447,2.749,2.749,0,0,1-2.146-.9v3.258h-1.569v-9.158h1.494v.88a2.757,2.757,0,0,1,2.221-.956,3.267,3.267,0,0,1,3.4,3.434m-1.595,0a1.993,1.993,0,1,0-1.983,2.1,1.953,1.953,0,0,0,1.983-2.1" fill="#132b50"/>
    <path id="Path_124" data-name="Path 124" d="M1524.625,418.676v3.85h-1.569v-3.649c0-1.194-.552-1.773-1.507-1.773-1.029,0-1.744.678-1.744,2.012v3.41h-1.57v-3.649c0-1.194-.551-1.773-1.506-1.773-1.042,0-1.745.678-1.745,2.012v3.41h-1.569v-6.718h1.494v.855a2.775,2.775,0,0,1,2.2-.93,2.511,2.511,0,0,1,2.26,1.119,3.123,3.123,0,0,1,2.51-1.119c1.619,0,2.749.918,2.749,2.943" fill="#132b50"/>
    <path id="Path_125" data-name="Path 125" d="M1532.716,419.67h-5.259a2.032,2.032,0,0,0,2.172,1.61,2.4,2.4,0,0,0,1.82-.729l.841.968a3.763,3.763,0,0,1-6.4-2.353,3.338,3.338,0,0,1,3.464-3.434,3.273,3.273,0,0,1,3.39,3.473c0,.125-.013.314-.026.465m-5.271-1.044h3.8a1.825,1.825,0,0,0-1.9-1.636,1.854,1.854,0,0,0-1.907,1.636" fill="#132b50"/>
    <path id="Path_126" data-name="Path 126" d="M1540.6,418.676v3.85h-1.569v-3.649c0-1.194-.59-1.773-1.594-1.773a1.782,1.782,0,0,0-1.87,2.025v3.4h-1.57v-6.718h1.495v.868a2.91,2.91,0,0,1,2.308-.943,2.622,2.622,0,0,1,2.8,2.943" fill="#132b50"/>
    <path id="Path_127" data-name="Path 127" d="M1546.369,422.161a2.457,2.457,0,0,1-1.505.452,2.061,2.061,0,0,1-2.31-2.264v-3.233h-1.1v-1.258h1.1v-1.535h1.568v1.535h1.8v1.258h-1.8v3.2c0,.655.327,1.006.93,1.006a1.413,1.413,0,0,0,.879-.276Z" fill="#132b50"/>
  </g>
</svg>
